<svg width="107" height="30" viewBox="0 0 107 30" fill="none" xmlns="http://www.w3.org/2000/svg">
<g clip-path="url(#clip0_255_2115)">
<path d="M15.0785 0C14.8529 0 14.6584 0.0202104 14.47 0.0391392C6.66011 0.365469 0.368117 6.62042 0.0386328 14.3891C0.0193891 14.5775 0 14.7738 0 15.0004C0 15.229 0.0183807 15.4116 0.036332 15.5887C0.0364468 15.5917 0.0392135 15.5937 0.0392135 15.5969C0.362321 23.3679 6.65143 29.6274 14.4617 29.9587C14.6533 29.9782 14.8495 30 15.0784 30C16.7326 30 18.4016 29.3571 19.6565 28.1086L28.2585 19.5539C30.768 17.0575 30.768 12.9426 28.2585 10.4462L25.8006 8.00111L22.7556 11.0323L25.2128 13.4767C26.0875 14.3468 26.0875 15.6532 25.2128 16.5234L16.6101 25.0781C16.173 25.513 15.6324 25.7145 15.0784 25.7145C15.0203 25.7145 14.9363 25.7079 14.8231 25.6946C14.7681 25.6878 14.7129 25.6831 14.6576 25.6806C9.0361 25.45 4.56746 21.0053 4.33833 15.4131C4.33642 15.3608 4.33258 15.3086 4.32683 15.2566C4.31233 15.1308 4.30673 15.0451 4.30673 14.9997C4.30673 14.9437 4.31391 14.8603 4.32683 14.7487C4.33271 14.6949 4.33655 14.641 4.33833 14.587C4.56677 8.99156 9.03864 4.54381 14.6635 4.31656C14.7178 4.31394 14.7721 4.30927 14.826 4.30257C14.9379 4.28957 15.0222 4.28558 15.0784 4.28558C15.6324 4.28558 16.173 4.48414 16.6101 4.919L17.1303 5.4365L20.176 2.40601L19.6565 1.88924C18.4016 0.640835 16.7328 0 15.0785 0Z" fill="#0EA5E9"/>
<path d="M27.9215 30C28.1471 30 28.3417 29.9798 28.53 29.9609C36.3399 29.6345 42.6319 23.3796 42.9614 15.6109C42.9806 15.4225 43 15.2262 43 14.9996C43 14.771 42.9816 14.5885 42.9637 14.4113C42.9636 14.4083 42.9608 14.4063 42.9608 14.4031C42.6377 6.63208 36.3486 0.37257 28.5383 0.0413518C28.3467 0.0218516 28.1505 0 27.9216 0C26.2674 0 24.5985 0.642941 23.3435 1.89138L14.7415 10.4461C12.232 12.9426 12.232 17.0574 14.7415 19.5538L17.1994 21.9989L20.2444 18.9677L17.7872 16.5234C16.9125 15.6532 16.9125 14.3468 17.7872 13.4766L26.3899 4.92186C26.827 4.487 27.3676 4.2855 27.9216 4.2855C27.9797 4.2855 28.0637 4.29208 28.1769 4.30543C28.2319 4.31222 28.2871 4.31688 28.3424 4.31943C33.9639 4.55005 38.4326 8.99474 38.6617 14.5869C38.6636 14.6392 38.6674 14.6914 38.6732 14.7434C38.6877 14.8692 38.6933 14.9549 38.6933 15.0003C38.6933 15.0563 38.6861 15.1397 38.6732 15.2513C38.6673 15.3051 38.6635 15.359 38.6617 15.413C38.4332 21.0085 33.9614 25.4562 28.3365 25.6834C28.2822 25.6861 28.2279 25.6907 28.174 25.6974C28.0621 25.7104 27.9778 25.7144 27.9216 25.7144C27.3676 25.7144 26.8271 25.5159 26.3899 25.081L25.8697 24.5635L22.824 27.594L23.3435 28.1108C24.5984 29.3592 26.2672 30 27.9215 30Z" fill="#0EA5E9"/>
</g>
<path d="M63.8711 14.5293V15.2617C63.8711 16.3359 63.7279 17.3027 63.4414 18.1621C63.1549 19.015 62.748 19.7409 62.2207 20.3398C61.6934 20.9388 61.0651 21.3978 60.3359 21.7168C59.6068 22.0358 58.7962 22.1953 57.9043 22.1953C57.0254 22.1953 56.2181 22.0358 55.4824 21.7168C54.7533 21.3978 54.1217 20.9388 53.5879 20.3398C53.054 19.7409 52.6406 19.015 52.3477 18.1621C52.0547 17.3027 51.9082 16.3359 51.9082 15.2617V14.5293C51.9082 13.4486 52.0547 12.4818 52.3477 11.6289C52.6406 10.776 53.0508 10.0501 53.5781 9.45117C54.1055 8.8457 54.7337 8.38346 55.4629 8.06445C56.1986 7.74544 57.0059 7.58594 57.8848 7.58594C58.7767 7.58594 59.5872 7.74544 60.3164 8.06445C61.0456 8.38346 61.6738 8.8457 62.2012 9.45117C62.735 10.0501 63.1452 10.776 63.4316 11.6289C63.7246 12.4818 63.8711 13.4486 63.8711 14.5293ZM61.1562 15.2617V14.5098C61.1562 13.735 61.0846 13.0547 60.9414 12.4688C60.7982 11.8763 60.5866 11.3783 60.3066 10.9746C60.0267 10.571 59.6816 10.2682 59.2715 10.0664C58.8613 9.85807 58.3991 9.75391 57.8848 9.75391C57.3639 9.75391 56.9017 9.85807 56.498 10.0664C56.1009 10.2682 55.7624 10.571 55.4824 10.9746C55.2025 11.3783 54.9876 11.8763 54.8379 12.4688C54.6947 13.0547 54.623 13.735 54.623 14.5098V15.2617C54.623 16.0299 54.6947 16.7103 54.8379 17.3027C54.9876 17.8952 55.2025 18.3965 55.4824 18.8066C55.7689 19.2103 56.1139 19.5163 56.5176 19.7246C56.9212 19.9329 57.3835 20.0371 57.9043 20.0371C58.4251 20.0371 58.8874 19.9329 59.291 19.7246C59.6947 19.5163 60.0332 19.2103 60.3066 18.8066C60.5866 18.3965 60.7982 17.8952 60.9414 17.3027C61.0846 16.7103 61.1562 16.0299 61.1562 15.2617ZM68.0703 7.78125L70.9121 12.8496L73.7637 7.78125H76.8496L72.6309 14.832L76.957 22H73.8418L70.9121 16.834L67.9922 22H64.8672L69.1934 14.832L64.9746 7.78125H68.0703ZM89.8672 14.5293V15.2617C89.8672 16.3359 89.724 17.3027 89.4375 18.1621C89.151 19.015 88.7441 19.7409 88.2168 20.3398C87.6895 20.9388 87.0612 21.3978 86.332 21.7168C85.6029 22.0358 84.7923 22.1953 83.9004 22.1953C83.0215 22.1953 82.2142 22.0358 81.4785 21.7168C80.7493 21.3978 80.1178 20.9388 79.584 20.3398C79.0501 19.7409 78.6367 19.015 78.3438 18.1621C78.0508 17.3027 77.9043 16.3359 77.9043 15.2617V14.5293C77.9043 13.4486 78.0508 12.4818 78.3438 11.6289C78.6367 10.776 79.0469 10.0501 79.5742 9.45117C80.1016 8.8457 80.7298 8.38346 81.459 8.06445C82.1947 7.74544 83.002 7.58594 83.8809 7.58594C84.7728 7.58594 85.5833 7.74544 86.3125 8.06445C87.0417 8.38346 87.6699 8.8457 88.1973 9.45117C88.7311 10.0501 89.1413 10.776 89.4277 11.6289C89.7207 12.4818 89.8672 13.4486 89.8672 14.5293ZM87.1523 15.2617V14.5098C87.1523 13.735 87.0807 13.0547 86.9375 12.4688C86.7943 11.8763 86.5827 11.3783 86.3027 10.9746C86.0228 10.571 85.6777 10.2682 85.2676 10.0664C84.8574 9.85807 84.3952 9.75391 83.8809 9.75391C83.36 9.75391 82.8978 9.85807 82.4941 10.0664C82.097 10.2682 81.7585 10.571 81.4785 10.9746C81.1986 11.3783 80.9837 11.8763 80.834 12.4688C80.6908 13.0547 80.6191 13.735 80.6191 14.5098V15.2617C80.6191 16.0299 80.6908 16.7103 80.834 17.3027C80.9837 17.8952 81.1986 18.3965 81.4785 18.8066C81.765 19.2103 82.11 19.5163 82.5137 19.7246C82.9173 19.9329 83.3796 20.0371 83.9004 20.0371C84.4212 20.0371 84.8835 19.9329 85.2871 19.7246C85.6908 19.5163 86.0293 19.2103 86.3027 18.8066C86.5827 18.3965 86.7943 17.8952 86.9375 17.3027C87.0807 16.7103 87.1523 16.0299 87.1523 15.2617Z" fill="black" fill-opacity="0.85"/>
<path d="M96.25 20.4277V11.5H98.0684V22H96.4277L96.25 20.4277ZM91.499 18.3906V18.2471C91.499 17.682 91.5628 17.1693 91.6904 16.709C91.8226 16.2441 92.014 15.8454 92.2646 15.5127C92.5153 15.18 92.8184 14.9225 93.1738 14.7402C93.5339 14.5579 93.9417 14.4668 94.3975 14.4668C94.8395 14.4668 95.2246 14.5557 95.5527 14.7334C95.8854 14.9111 96.168 15.1641 96.4004 15.4922C96.6374 15.8203 96.8265 16.21 96.9678 16.6611C97.109 17.1077 97.2116 17.5999 97.2754 18.1377V18.5273C97.2116 19.0514 97.109 19.5322 96.9678 19.9697C96.8265 20.4072 96.6374 20.79 96.4004 21.1182C96.168 21.4417 95.8854 21.6924 95.5527 21.8701C95.2201 22.0479 94.8304 22.1367 94.3838 22.1367C93.9326 22.1367 93.527 22.0433 93.167 21.8564C92.8115 21.6696 92.5085 21.4076 92.2578 21.0703C92.0117 20.7331 91.8226 20.3366 91.6904 19.8809C91.5628 19.4251 91.499 18.9284 91.499 18.3906ZM93.3105 18.2471V18.3906C93.3105 18.7096 93.3379 19.0081 93.3926 19.2861C93.4473 19.5641 93.5361 19.8102 93.6592 20.0244C93.7822 20.234 93.9395 20.3981 94.1309 20.5166C94.3268 20.6351 94.5638 20.6943 94.8418 20.6943C95.1973 20.6943 95.4889 20.6169 95.7168 20.4619C95.9492 20.3024 96.1292 20.0859 96.2568 19.8125C96.3844 19.5345 96.4665 19.2223 96.5029 18.876V17.8027C96.4847 17.5293 96.4368 17.2764 96.3594 17.0439C96.2865 16.8115 96.1816 16.611 96.0449 16.4424C95.9128 16.2738 95.7487 16.1416 95.5527 16.0459C95.3568 15.9502 95.1243 15.9023 94.8555 15.9023C94.5775 15.9023 94.3405 15.9639 94.1445 16.0869C93.9486 16.2054 93.7891 16.3717 93.666 16.5859C93.543 16.8001 93.4518 17.0485 93.3926 17.3311C93.3379 17.6136 93.3105 17.9189 93.3105 18.2471ZM99.6953 11.5H101.507V20.3662L101.329 22H99.6953V11.5ZM106.265 18.2266V18.3701C106.265 18.9215 106.203 19.4274 106.08 19.8877C105.962 20.348 105.782 20.7467 105.54 21.084C105.299 21.4167 104.998 21.6764 104.638 21.8633C104.282 22.0456 103.865 22.1367 103.387 22.1367C102.931 22.1367 102.535 22.0479 102.197 21.8701C101.865 21.6924 101.584 21.4417 101.356 21.1182C101.129 20.79 100.946 20.4049 100.81 19.9629C100.673 19.5163 100.57 19.0286 100.502 18.5V18.1104C100.57 17.5771 100.673 17.0895 100.81 16.6475C100.946 16.2054 101.129 15.8203 101.356 15.4922C101.584 15.1641 101.865 14.9111 102.197 14.7334C102.53 14.5557 102.922 14.4668 103.373 14.4668C103.856 14.4668 104.278 14.5602 104.638 14.7471C105.002 14.9294 105.303 15.1891 105.54 15.5264C105.782 15.859 105.962 16.2555 106.08 16.7158C106.203 17.1715 106.265 17.6751 106.265 18.2266ZM104.453 18.3701V18.2266C104.453 17.9121 104.428 17.6159 104.378 17.3379C104.328 17.0553 104.246 16.807 104.132 16.5928C104.018 16.3786 103.863 16.21 103.667 16.0869C103.471 15.9639 103.225 15.9023 102.929 15.9023C102.646 15.9023 102.405 15.9502 102.204 16.0459C102.008 16.1416 101.844 16.2738 101.712 16.4424C101.584 16.611 101.484 16.8092 101.411 17.0371C101.343 17.265 101.297 17.5111 101.274 17.7754V18.8418C101.306 19.1927 101.382 19.5094 101.5 19.792C101.618 20.07 101.794 20.291 102.026 20.4551C102.263 20.6191 102.569 20.7012 102.942 20.7012C103.234 20.7012 103.478 20.6442 103.674 20.5303C103.87 20.4118 104.025 20.2477 104.139 20.0381C104.253 19.8239 104.332 19.5755 104.378 19.293C104.428 19.0104 104.453 18.7028 104.453 18.3701Z" fill="#0EA5E9"/>
<defs>
<clipPath id="clip0_255_2115">
<rect width="43" height="30" fill="white"/>
</clipPath>
</defs>
</svg>
